<svg version="1.2" xmlns="http://www.w3.org/2000/svg" viewBox="0 0 64 64" width="64" height="64">
	<title>New Project</title>
	<style>
		.s0 { fill: #003366 } 
		.s1 { fill: #fb8500 } 
	</style>
	<path id="S{B}" class="s0" aria-label="S{B}"  d="m9 41.4c6 0 8.9-3 8.9-6.5 0-7.7-12.2-5.1-12.2-8.9 0-1.3 1.1-2.4 4-2.4 1.8 0 3.8 0.5 5.8 1.6l1.5-3.7c-2-1.2-4.7-1.8-7.3-1.8-6 0-8.8 3-8.8 6.5 0 7.8 12.1 5.1 12.1 9 0 1.3-1.1 2.3-4 2.3-2.5 0-5.1-0.9-6.9-2.2l-1.7 3.6c1.9 1.5 5.2 2.5 8.6 2.5zm39.3-11.3c1.7-0.9 2.7-2.5 2.7-4.6 0-3.3-2.7-5.4-7.9-5.4h-10.2v20.9h10.8c5.5 0 8.4-2.1 8.4-5.7 0-2.6-1.5-4.4-3.8-5.2zm-5.8-6.4c2.4 0 3.7 0.8 3.7 2.5 0 1.6-1.3 2.4-3.7 2.4h-4.8v-4.9zm0.8 13.6h-5.6v-5.1h5.6c2.5 0 3.9 0.8 3.9 2.6 0 1.8-1.4 2.5-3.9 2.5z"/>
	<path id="S{B}" class="s1" aria-label="S{B}"  d="m27.2 29.4v-4.7c0-1.4 0.7-2.3 2.2-2.3h0.5v-3.6h-1.7c-3.7 0-5.6 1.9-5.6 5.4v5.4c0 0.9-0.6 1.4-1.4 1.4h-1v3.6h1c0.8 0 1.4 0.5 1.4 1.4v5.4c0 3.5 1.9 5.4 5.6 5.4h1.7v-3.6h-0.5c-1.5 0-2.2-0.9-2.2-2.3v-4.7c0-2.1-0.6-3-2-3.4 1.4-0.4 2-1.3 2-3.4zm35.2 1.6c-0.8 0-1.3-0.5-1.3-1.4v-5.4c0-3.5-1.9-5.4-5.6-5.4h-1.8v3.6h0.6c1.4 0 2.2 0.9 2.2 2.3v4.7c0 2.1 0.6 3 2 3.4-1.4 0.4-2 1.3-2 3.4v4.7c0 1.4-0.8 2.3-2.2 2.3h-0.6v3.6h1.8c3.7 0 5.6-1.9 5.6-5.4v-5.4c0-0.9 0.5-1.4 1.3-1.4h1v-3.6z"/>
</svg>